<?xml version="1.0" standalone="no"?>
<!DOCTYPE svg PUBLIC "-//W3C//DTD SVG 20010904//EN"
 "http://www.w3.org/TR/2001/REC-SVG-20010904/DTD/svg10.dtd">
<svg version="1.0" xmlns="http://www.w3.org/2000/svg"
 width="900.000000pt" height="512.000000pt" viewBox="0 0 900.000000 512.000000"
 preserveAspectRatio="xMidYMid meet">

<g transform="translate(0.000000,512.000000) scale(0.100000,-0.100000)"
fill="#000000" stroke="none">
<path d="M4360 4640 c-621 -56 -1148 -356 -1324 -754 -14 -32 -42 -77 -63
-101 -129 -147 -202 -377 -203 -635 0 -154 30 -369 87 -625 3 -15 -7 -28 -41
-52 -93 -66 -139 -181 -118 -296 15 -80 80 -212 136 -273 86 -96 220 -151 343
-141 61 5 62 4 74 -26 20 -48 102 -167 155 -226 27 -30 82 -81 122 -113 40
-32 69 -58 63 -58 -5 0 -48 -36 -95 -80 -142 -135 -304 -397 -314 -507 -4 -45
-2 -53 20 -67 34 -22 107 -34 250 -42 145 -7 217 -24 467 -107 l186 -62 190 0
c165 0 212 4 360 29 l170 30 235 -18 c401 -30 548 -27 697 14 103 28 128 43
158 93 64 111 53 235 -32 356 -52 73 -237 261 -356 361 -42 35 -77 67 -77 70
0 3 16 14 36 25 46 25 194 180 280 295 64 86 68 89 113 95 168 22 274 67 346
147 69 77 93 188 63 292 -14 47 -111 151 -150 161 -25 7 -25 7 -12 53 27 87
37 270 25 440 -20 271 -91 696 -147 867 -169 527 -678 842 -1388 860 -88 2
-204 0 -256 -5z m575 -165 c247 -43 472 -139 624 -265 264 -220 448 -751 468
-1356 4 -112 2 -187 -4 -198 -7 -13 -11 8 -16 81 -21 344 -160 669 -418 976
-224 269 -484 412 -826 458 -113 15 -393 6 -493 -16 -307 -67 -646 -250 -872
-471 -68 -67 -81 -85 -119 -176 l-43 -101 -21 28 c-54 75 -61 80 -89 67 -14
-6 -26 -17 -26 -24 0 -7 20 -42 45 -78 42 -61 44 -67 34 -102 l-10 -38 -66 51
c-62 47 -68 50 -80 33 -24 -33 -15 -69 30 -120 73 -84 70 -76 48 -132 -27 -69
-57 -187 -75 -302 -19 -115 -45 -199 -57 -178 -19 34 -70 268 -86 389 -13 109
-14 149 -5 228 11 92 15 104 112 301 56 113 122 238 147 279 129 207 312 384
493 476 106 53 349 126 566 170 229 45 545 54 739 20z m-98 -474 c197 -44 360
-126 518 -261 414 -352 632 -1104 469 -1620 -68 -216 -173 -357 -409 -550
-298 -244 -566 -339 -915 -327 -501 18 -861 196 -1089 537 -72 107 -170 298
-201 390 -49 145 -63 389 -35 603 77 589 413 1023 911 1180 243 77 540 95 751
48z m-1811 -1703 c9 -29 36 -103 60 -165 23 -61 46 -132 49 -157 l7 -45 -38
11 c-89 24 -178 98 -210 173 -21 51 -18 123 7 160 23 33 76 75 96 75 6 0 19
-24 29 -52z m3081 -27 c50 -36 73 -84 73 -151 0 -49 -3 -56 -43 -95 -32 -32
-59 -48 -111 -64 -37 -11 -76 -21 -87 -21 -17 0 -17 3 5 50 13 27 38 108 57
180 37 146 40 149 106 101z m-687 -1022 c223 -167 347 -287 387 -376 28 -60
40 -135 29 -177 -5 -22 -12 -26 -44 -25 -37 0 -38 1 -142 161 -128 197 -181
258 -220 258 -58 0 -58 -1 129 -292 44 -69 81 -131 81 -137 0 -6 -16 -19 -35
-28 -44 -21 -42 -23 -164 146 -141 194 -131 185 -170 176 -18 -4 -35 -13 -37
-20 -3 -7 34 -69 81 -137 85 -120 123 -184 114 -191 -2 -3 -27 -7 -55 -10
l-51 -6 -79 111 c-106 149 -144 191 -167 183 -44 -18 -40 -40 26 -142 35 -54
72 -113 81 -132 l18 -34 -24 6 c-114 28 -219 40 -343 41 -121 0 -160 -4 -294
-32 -217 -47 -287 -45 -436 8 -63 22 -168 59 -232 82 -115 40 -123 41 -315 53
-109 6 -201 15 -205 19 -20 20 48 177 122 281 55 78 230 245 256 245 11 0 56
-18 100 -41 112 -56 269 -106 386 -124 330 -50 845 32 1033 164 30 22 60 39
65 40 6 1 53 -31 105 -70z"/>
<path d="M3965 3436 c-44 -7 -135 -23 -203 -36 l-123 -22 6 -32 c13 -59 23
-63 133 -43 134 24 373 74 379 80 2 3 -3 19 -12 36 -14 28 -20 31 -58 30 -23
-1 -78 -7 -122 -13z"/>
<path d="M5118 3395 c-7 -16 -8 -29 -2 -35 21 -21 454 -93 469 -78 3 3 1 17
-4 31 -13 32 -58 46 -261 82 -181 31 -188 31 -202 0z"/>
<path d="M3915 3240 c-298 -47 -485 -227 -485 -468 0 -224 139 -399 365 -457
78 -20 240 -19 318 1 166 43 282 145 339 300 18 49 22 81 22 189 0 113 -3 138
-23 190 -46 118 -111 181 -230 226 -65 24 -212 33 -306 19z m293 -99 c72 -32
143 -111 168 -187 27 -82 27 -248 0 -320 -60 -163 -221 -264 -419 -264 -197 0
-340 80 -411 230 -28 59 -31 74 -31 165 0 88 4 107 28 156 54 111 160 189 311
230 103 28 280 23 354 -10z"/>
<path d="M3930 2883 c-48 -25 -80 -76 -80 -128 0 -51 26 -79 91 -96 40 -11 50
-10 85 7 119 58 108 218 -16 231 -31 3 -56 -1 -80 -14z"/>
<path d="M5077 3234 c-64 -20 -188 -106 -236 -163 -160 -191 -135 -444 62
-629 223 -209 605 -155 722 101 64 140 49 342 -38 490 -38 64 -128 144 -204
180 -59 27 -80 32 -163 34 -64 2 -110 -2 -143 -13z m276 -97 c65 -30 145 -105
176 -165 51 -99 66 -254 35 -350 -50 -153 -207 -242 -394 -221 -133 14 -259
111 -322 246 -27 58 -32 79 -32 148 0 91 20 149 78 220 44 53 130 112 198 137
75 26 184 20 261 -15z"/>
<path d="M5174 2881 c-31 -14 -47 -30 -63 -63 -25 -52 -26 -69 -6 -107 14 -29
76 -61 116 -61 70 0 129 63 129 138 0 54 -12 77 -50 97 -38 20 -76 19 -126 -4z"/>
<path d="M4752 2308 c-20 -20 -14 -35 24 -57 43 -26 77 -95 72 -149 -3 -36 -4
-37 -41 -36 -24 1 -87 26 -184 74 -151 74 -163 76 -187 36 -13 -20 1 -33 119
-106 228 -143 379 -143 393 -1 9 100 -40 195 -122 232 -49 22 -58 23 -74 7z"/>
<path d="M3982 1804 c-29 -20 -28 -45 5 -79 152 -151 635 -205 931 -104 68 23
80 36 62 68 -14 27 -50 36 -92 22 -58 -19 -200 -39 -318 -46 -192 -12 -332 21
-476 111 -40 24 -76 44 -81 44 -5 0 -19 -7 -31 -16z"/>
</g>
</svg>
