<?xml version="1.0" standalone="no"?>
<!DOCTYPE svg PUBLIC "-//W3C//DTD SVG 20010904//EN"
 "http://www.w3.org/TR/2001/REC-SVG-20010904/DTD/svg10.dtd">
<svg version="1.0" xmlns="http://www.w3.org/2000/svg"
 width="920.000000pt" height="512.000000pt" viewBox="0 0 920.000000 512.000000"
 preserveAspectRatio="xMidYMid meet">

<g transform="translate(0.000000,512.000000) scale(0.100000,-0.100000)"
fill="#000000" stroke="none">
<path d="M5527 4890 c-297 -63 -618 -205 -919 -406 l-136 -92 -29 30 c-142
150 -594 337 -948 392 -184 28 -185 28 -185 -2 0 -15 14 -119 30 -231 34 -232
75 -629 67 -637 -8 -8 -361 -7 -737 1 -368 9 -347 15 -337 -91 22 -233 210
-622 429 -888 l65 -79 -135 -105 c-172 -134 -264 -221 -366 -348 -97 -122
-150 -208 -142 -229 13 -35 131 -76 321 -111 167 -31 319 -71 406 -108 l31
-13 -114 -119 c-74 -79 -145 -167 -208 -259 -112 -166 -279 -441 -287 -473 -6
-26 16 -65 51 -88 25 -16 174 -13 709 12 l137 7 0 -24 c0 -34 -33 -167 -87
-357 -39 -135 -45 -165 -33 -172 26 -16 155 -22 250 -11 149 17 253 59 375
151 l68 51 41 -39 c113 -108 223 -153 482 -198 19 -3 21 -12 27 -111 5 -68 12
-110 20 -115 19 -12 468 -17 505 -6 21 7 22 12 22 128 l0 120 28 5 c69 15 159
53 307 130 l161 82 48 -38 c78 -63 234 -127 419 -174 174 -43 303 -35 367 25
30 28 30 29 32 152 1 67 1 209 -1 313 l-3 190 43 26 c24 15 110 65 191 113
182 107 270 176 348 274 91 116 180 301 180 377 0 33 -16 39 -203 70 -165 28
-281 56 -330 81 -43 22 -77 54 -77 73 0 9 28 34 61 56 68 44 199 179 283 288
151 198 232 430 243 692 3 77 1 156 -4 175 -14 54 -51 52 -224 -13 -79 -30
-177 -64 -217 -75 l-73 -21 7 22 c4 12 14 38 24 57 10 19 51 112 93 205 117
266 158 415 160 590 2 110 -6 155 -27 155 -8 0 -95 -34 -193 -76 -256 -109
-357 -148 -453 -178 -106 -32 -289 -63 -395 -68 -67 -2 -80 0 -83 14 -4 22 28
216 94 566 30 161 54 305 52 320 -3 26 -5 27 -73 29 -39 1 -110 -6 -158 -17z
m88 -142 c-48 -222 -155 -799 -155 -842 l0 -56 119 0 c284 0 550 60 919 207
90 36 166 63 169 60 7 -7 -57 -199 -117 -352 -61 -155 -146 -339 -205 -440
-36 -64 -85 -185 -85 -212 0 -15 117 12 331 76 130 39 244 71 254 71 15 0 16
-8 10 -82 -14 -164 -64 -339 -132 -458 -69 -122 -265 -348 -401 -465 -45 -38
-82 -76 -82 -83 0 -51 106 -179 168 -203 15 -6 115 -31 222 -55 107 -24 201
-46 208 -49 20 -7 -56 -146 -133 -243 -94 -117 -195 -193 -387 -291 -90 -46
-175 -92 -190 -103 l-28 -19 0 -284 c0 -156 -3 -290 -6 -298 -6 -17 -10 -17
-174 9 -171 27 -315 72 -374 117 -18 14 -17 18 41 98 34 46 84 125 112 174 50
86 111 251 111 298 0 37 12 44 99 56 105 16 174 41 225 83 119 98 116 335 -5
415 -40 26 -131 53 -184 53 l-31 0 9 108 c11 142 2 446 -18 602 -32 238 -95
438 -183 580 -247 399 -494 588 -843 645 -108 17 -377 20 -484 5 -366 -52
-621 -233 -783 -556 -133 -266 -235 -746 -249 -1180 l-6 -181 -48 -12 c-142
-37 -229 -168 -229 -345 0 -99 22 -168 71 -221 59 -63 116 -87 227 -93 50 -2
92 -7 92 -11 2 -42 24 -152 41 -197 12 -31 59 -113 105 -182 46 -69 83 -127
81 -128 -1 -1 -72 -27 -157 -57 -172 -61 -230 -76 -230 -58 0 7 18 83 40 171
53 209 52 227 -4 286 l-45 46 -103 -7 c-143 -9 -675 -12 -683 -3 -13 13 4 53
62 146 109 173 236 342 476 635 26 32 47 67 47 79 0 32 -79 101 -162 142 -88
44 -210 71 -400 88 -76 6 -143 15 -150 19 -27 17 307 364 428 444 58 38 184
151 184 165 0 4 -32 45 -70 91 -94 112 -255 353 -307 460 -64 131 -106 263
-107 339 l-1 65 538 3 c295 1 537 6 537 10 0 5 -25 168 -55 363 -30 195 -58
394 -62 443 -6 84 -5 88 13 82 10 -3 51 -15 89 -27 247 -75 589 -238 749 -358
59 -44 116 -83 127 -86 22 -7 34 0 257 151 178 121 320 194 506 264 139 51
340 109 384 110 18 0 21 -4 17 -22z m-736 -1028 c205 -42 349 -123 493 -279
172 -186 324 -499 390 -801 32 -150 32 -488 -1 -700 -82 -538 -203 -888 -358
-1042 l-68 -67 -65 45 c-94 66 -135 85 -149 71 -21 -21 -11 -36 65 -97 83 -69
84 -74 11 -113 l-35 -19 -81 65 c-115 90 -127 96 -152 70 l-20 -20 68 -51 c79
-59 107 -87 99 -100 -3 -5 -33 -20 -66 -32 l-61 -23 -84 82 c-74 73 -86 81
-104 71 -12 -6 -21 -16 -20 -23 0 -7 24 -41 54 -77 52 -63 53 -65 32 -74 -34
-14 -459 -12 -565 2 -118 16 -199 48 -287 115 -174 132 -331 413 -390 694 -84
398 -67 1086 34 1467 147 551 376 799 791 856 100 14 359 3 469 -20z m-1494
-2043 c9 -51 19 -129 23 -174 9 -93 8 -94 -59 -72 -51 18 -99 58 -116 96 -26
64 13 179 84 248 36 35 37 35 45 15 4 -12 15 -62 23 -113z m2619 119 c104 -43
102 -174 -4 -270 -44 -40 -96 -66 -130 -66 -23 0 -23 1 16 134 14 46 24 106
24 141 0 34 3 65 7 68 11 11 51 8 87 -7z m-1243 -1345 c12 -1 18 -15 22 -59 9
-85 3 -100 -47 -107 -25 -4 -60 0 -91 9 -58 18 -118 20 -146 6 -16 -9 -21 -7
-29 15 -6 15 -10 52 -10 83 l0 57 143 -2 c78 -1 149 -2 158 -2z"/>
<path d="M5165 4522 c-89 -46 -209 -126 -233 -154 -9 -12 -7 -19 13 -38 l24
-23 42 38 c40 36 196 116 254 131 14 4 29 13 32 20 7 19 -16 74 -31 74 -6 0
-52 -22 -101 -48z"/>
<path d="M3625 4468 c8 -64 54 -301 60 -306 9 -9 65 41 65 57 0 9 -5 43 -11
75 -16 87 -17 86 78 66 46 -9 85 -15 88 -12 3 3 5 18 5 34 0 25 -7 32 -53 53
-51 22 -223 85 -234 85 -3 0 -2 -24 2 -52z"/>
<path d="M4395 3379 c-211 -18 -479 -89 -542 -143 -31 -27 -44 -92 -32 -165
13 -81 22 -86 101 -57 177 67 359 95 653 103 322 8 556 -15 748 -74 65 -19 91
-23 99 -15 6 6 13 48 16 92 5 95 0 105 -86 143 -207 93 -632 144 -957 116z
m450 -80 c162 -14 349 -47 440 -77 79 -27 80 -28 86 -65 3 -21 3 -40 -1 -42
-3 -2 -40 5 -81 16 -184 49 -312 63 -564 63 -266 0 -412 -14 -657 -65 -79 -16
-146 -29 -150 -29 -11 0 -21 66 -13 90 15 49 205 103 415 120 116 9 355 4 525
-11z"/>
<path d="M4044 2919 c-92 -11 -157 -43 -213 -105 -75 -82 -95 -143 -96 -284 0
-112 1 -117 36 -190 61 -126 143 -189 279 -212 55 -9 85 -9 142 0 134 23 233
96 287 211 24 51 26 67 26 181 0 116 -2 129 -28 185 -74 159 -236 239 -433
214z m202 -90 c107 -40 174 -127 193 -251 27 -169 -49 -313 -195 -368 -86 -32
-207 -26 -282 15 -200 109 -226 426 -47 567 75 59 227 76 331 37z"/>
<path d="M4059 2551 c-32 -33 -36 -58 -14 -100 15 -31 33 -41 70 -41 13 0 31
3 40 6 19 8 45 55 45 84 0 31 -53 80 -85 80 -16 0 -38 -12 -56 -29z"/>
<path d="M4902 2895 c-74 -21 -108 -40 -157 -90 -148 -147 -165 -412 -39 -600
69 -104 166 -155 309 -163 296 -15 492 199 454 497 -21 172 -105 286 -252 343
-69 27 -239 34 -315 13z m300 -83 c69 -31 131 -92 164 -165 26 -56 29 -73 29
-167 0 -99 -2 -110 -33 -172 -58 -119 -156 -179 -302 -186 -70 -3 -95 0 -144
18 -179 68 -271 296 -197 490 36 95 97 155 192 191 72 26 221 22 291 -9z"/>
<path d="M5012 2533 c-16 -6 -42 -56 -42 -82 0 -11 12 -33 26 -50 34 -41 83
-43 121 -5 22 22 25 32 20 67 -4 26 -14 49 -27 59 -21 17 -70 23 -98 11z"/>
<path d="M3773 2078 c-22 -25 -12 -43 51 -85 96 -65 254 -89 389 -59 l77 17 0
36 c0 34 -1 35 -27 29 -16 -4 -80 -10 -144 -13 -132 -6 -177 4 -272 61 -55 33
-56 34 -74 14z"/>
<path d="M5420 2044 c-58 -42 -147 -84 -213 -100 -60 -16 -160 -15 -213 1 -17
5 -23 1 -28 -21 -10 -37 8 -50 93 -64 115 -19 276 26 383 107 53 41 57 51 31
81 l-18 21 -35 -25z"/>
<path d="M4717 1953 c-4 -3 -7 -69 -7 -145 0 -225 -29 -350 -84 -364 -75 -19
-121 92 -131 321 -9 179 -11 187 -43 183 l-27 -3 -3 -105 c-8 -264 56 -456
159 -479 45 -10 106 9 131 41 55 72 85 251 73 442 l-7 116 -27 0 c-15 0 -31
-3 -34 -7z"/>
<path d="M5191 1426 l-23 -24 36 -17 c20 -10 50 -33 67 -53 30 -34 31 -38 26
-99 l-6 -64 32 3 c30 3 32 5 35 48 6 85 -35 170 -102 211 -39 24 -38 24 -65
-5z"/>
<path d="M3873 1373 c-31 -29 -43 -50 -52 -91 -17 -81 -15 -101 14 -114 14 -6
28 -9 31 -5 3 3 8 34 11 69 5 55 10 68 41 101 l36 37 -21 21 -20 21 -40 -39z"/>
<path d="M5095 1234 c-62 -23 -221 -62 -330 -80 -68 -12 -158 -18 -280 -18
-198 -1 -299 14 -410 60 -93 39 -93 39 -101 8 -4 -15 -3 -34 3 -43 13 -21 149
-67 264 -88 135 -25 470 -25 593 0 182 37 353 104 342 133 -3 9 -6 22 -6 30 0
17 -23 17 -75 -2z"/>
</g>
</svg>
