<?xml version="1.0" standalone="no"?>
<!DOCTYPE svg PUBLIC "-//W3C//DTD SVG 20010904//EN"
 "http://www.w3.org/TR/2001/REC-SVG-20010904/DTD/svg10.dtd">
<svg version="1.0" xmlns="http://www.w3.org/2000/svg"
 width="512.000000pt" height="512.000000pt" viewBox="0 0 512.000000 512.000000"
 preserveAspectRatio="xMidYMid meet">

<g transform="translate(0.000000,512.000000) scale(0.100000,-0.100000)"
fill="#000000" stroke="none">
<path d="M2356 4910 c-129 -15 -243 -39 -361 -77 l-112 -36 -65 26 c-217 87
-412 87 -588 0 -283 -139 -470 -574 -487 -1133 -11 -373 13 -540 216 -1515 75
-359 95 -514 95 -740 1 -119 -4 -218 -13 -265 -32 -179 -106 -349 -208 -476
l-55 -69 41 -6 c23 -3 71 -2 108 3 230 27 451 176 593 397 25 38 48 70 51 70
4 1 17 -26 29 -59 27 -73 111 -217 176 -302 203 -266 526 -458 863 -514 125
-20 364 -15 481 10 385 84 712 322 908 661 83 144 153 352 168 498 6 59 9 64
46 91 51 37 112 131 128 197 18 75 8 177 -24 242 -14 30 -51 78 -81 106 l-55
52 0 475 0 475 24 47 c40 80 57 151 57 247 0 127 -39 243 -112 337 l-29 36 11
101 c19 173 -11 355 -82 509 -150 325 -468 522 -965 597 -127 20 -630 29 -758
15z m730 -85 c461 -64 774 -245 915 -530 65 -133 80 -198 86 -382 7 -194 -1
-203 -70 -82 -46 81 -142 202 -224 282 -183 181 -403 299 -663 358 -111 26
-329 35 -443 20 -539 -72 -971 -435 -1135 -951 -57 -179 -62 -249 -62 -864 0
-436 -3 -558 -12 -561 -7 -3 -28 -6 -47 -7 -32 -3 -34 -1 -53 52 -61 178 -145
579 -180 860 -20 159 -17 568 5 704 110 691 493 1049 1192 1116 132 13 560 4
691 -15z m-1401 -35 c115 -29 116 -32 49 -70 -343 -193 -554 -559 -615 -1065
-15 -127 -15 -444 1 -600 26 -269 104 -651 180 -889 l32 -98 -51 -49 c-27 -28
-62 -75 -78 -107 -25 -51 -28 -68 -28 -157 0 -95 2 -103 34 -163 53 -97 149
-169 253 -187 34 -6 37 -10 43 -48 4 -23 13 -68 21 -100 l15 -58 -36 -67 c-83
-158 -231 -306 -379 -377 -65 -31 -196 -70 -196 -58 0 3 9 17 20 32 35 50 97
185 123 267 45 141 60 284 54 494 -6 215 -27 364 -98 705 -169 812 -187 916
-210 1190 -48 581 107 1135 373 1331 135 99 298 124 493 74z m1305 -370 c233
-29 462 -120 635 -254 l54 -43 -88 -11 c-73 -10 -206 -45 -220 -58 -2 -2 2
-17 9 -34 9 -22 18 -30 29 -26 112 36 172 46 266 44 l99 -3 61 -73 c33 -40 68
-85 78 -101 l16 -28 -52 14 c-173 44 -374 -13 -507 -146 -114 -114 -167 -253
-157 -416 24 -433 519 -665 863 -404 l64 48 0 -700 c0 -420 -4 -739 -10 -797
-13 -118 -49 -257 -95 -371 -42 -103 -55 -119 -55 -68 0 38 -6 42 -47 31 -18
-5 -23 -14 -23 -41 0 -61 -65 -153 -109 -153 -12 0 -14 -23 -5 -57 6 -21 8
-22 41 -8 42 18 40 15 -37 -70 -185 -204 -425 -342 -700 -401 -119 -26 -381
-26 -500 0 -560 121 -965 566 -1030 1132 -8 69 -10 363 -7 989 4 970 2 933 63
1120 83 250 248 480 457 637 264 196 592 286 907 248z m873 -645 c87 -23 155
-61 218 -124 99 -100 144 -218 137 -360 -6 -106 -33 -181 -96 -264 -109 -143
-297 -212 -466 -173 -195 46 -338 201 -369 397 -36 230 117 462 343 521 82 21
159 22 233 3z m-2373 -2020 l0 -284 -46 14 c-252 76 -274 426 -34 534 86 39
80 58 80 -264z m2787 131 c50 -99 37 -224 -31 -301 l-35 -40 -1 214 0 214 21
-19 c12 -10 32 -41 46 -68z"/>
<path d="M2325 4105 c-117 -22 -233 -71 -309 -130 -18 -13 -18 -16 -2 -40 18
-28 38 -32 55 -12 16 20 158 84 226 102 118 32 276 21 431 -30 17 -5 23 -1 34
25 7 17 11 32 9 34 -17 13 -104 39 -175 51 -103 18 -174 18 -269 0z"/>
<path d="M2253 3845 c-143 -39 -289 -158 -350 -285 -104 -219 -62 -465 107
-632 259 -254 686 -189 854 131 142 270 42 598 -224 740 -108 58 -271 77 -387
46z m229 -66 c239 -50 408 -291 371 -530 -40 -257 -286 -441 -534 -400 -184
30 -326 155 -381 334 -17 56 -20 86 -16 162 4 81 10 104 41 170 95 200 308
308 519 264z"/>
<path d="M2432 3338 c-7 -7 -12 -24 -12 -38 0 -34 17 -50 52 -50 27 0 48 23
48 54 0 37 -61 61 -88 34z"/>
<path d="M3109 2761 l-23 -18 206 -299 c169 -245 203 -300 190 -306 -9 -4 -96
-16 -192 -28 -225 -27 -220 -26 -220 -53 0 -49 2 -49 238 -18 122 17 230 35
241 41 22 11 37 51 28 72 -10 26 -429 628 -437 628 -4 0 -18 -8 -31 -19z"/>
<path d="M2900 1333 c-148 -12 -468 -78 -544 -112 -84 -37 -126 -102 -126
-196 0 -94 62 -180 149 -206 35 -10 54 -8 163 19 124 32 316 65 440 77 108 10
317 -18 562 -77 147 -35 178 -32 243 25 97 85 97 239 0 324 -99 87 -599 169
-887 146z m118 -80 c-4 -22 -22 -20 -26 1 -2 10 3 16 13 16 10 0 15 -7 13 -17z
m192 -2 c0 -5 -7 -14 -16 -22 -13 -10 -17 -10 -25 2 -14 23 -11 29 16 29 14 0
25 -4 25 -9z m-360 -10 c0 -18 -18 -21 -30 -6 -10 13 -9 15 9 15 11 0 21 -4
21 -9z m570 -21 c0 -4 -9 -15 -19 -24 -19 -17 -20 -17 -30 3 -17 31 -13 38 19
33 17 -2 30 -8 30 -12z m-750 -9 c0 -18 -18 -21 -30 -6 -10 13 -9 15 9 15 11
0 21 -4 21 -9z m335 -61 c9 0 33 16 53 36 25 25 38 32 41 23 7 -23 58 -69 76
-69 28 0 70 27 85 54 18 34 27 33 35 -3 10 -46 48 -81 89 -81 28 0 41 8 74 45
l39 44 12 -42 c33 -111 103 -140 167 -70 19 20 34 41 34 45 0 17 30 7 49 -17
44 -57 39 -135 -13 -190 -49 -51 -70 -47 -85 17 -22 99 -77 124 -137 64 l-33
-33 -6 28 c-4 15 -15 40 -26 54 -31 38 -70 33 -124 -16 -39 -36 -45 -39 -50
-23 -13 42 -32 69 -58 84 -24 13 -30 13 -54 0 -16 -9 -39 -32 -52 -52 l-24
-37 -28 44 c-57 89 -122 72 -194 -50 -9 -16 -13 -14 -35 18 -26 39 -68 67 -97
67 -28 0 -69 -48 -84 -97 l-12 -42 -40 34 c-69 59 -125 41 -149 -50 -11 -41
-15 -45 -44 -45 -59 0 -114 65 -114 135 0 40 12 68 43 102 l20 23 37 -40 c28
-30 45 -40 68 -40 38 0 69 31 78 76 l6 32 45 -34 c24 -19 53 -34 62 -34 29 0
69 37 76 70 l7 31 34 -31 c50 -43 98 -42 125 4 l20 33 33 -33 c19 -19 42 -34
51 -34z m621 30 c20 0 17 -24 -4 -44 -18 -15 -19 -15 -30 9 -16 35 -15 48 4
41 9 -3 22 -6 30 -6z m-1146 -14 c0 -8 -4 -18 -10 -21 -5 -3 -10 -4 -10 -1 0
2 -3 11 -6 20 -4 11 -1 16 10 16 9 0 16 -6 16 -14z m528 -151 c11 -24 10 -25
-23 -25 l-35 0 16 25 c9 14 20 25 24 25 4 0 12 -11 18 -25z m212 -27 c0 -4
-11 -8 -25 -8 -28 0 -30 3 -14 32 11 21 12 21 25 3 8 -10 14 -22 14 -27z
m-448 5 c25 -23 23 -30 -12 -35 -31 -5 -36 4 -24 36 8 20 13 20 36 -1z m647
-34 c1 -12 -6 -14 -29 -11 -36 5 -37 9 -8 39 21 22 23 23 29 6 4 -10 8 -25 8
-34z m171 -34 c0 -18 -4 -22 -20 -18 -23 6 -24 7 -8 32 15 24 28 18 28 -14z
m-1026 6 c3 -5 -3 -11 -14 -14 -13 -3 -20 0 -20 9 0 15 26 19 34 5z"/>
<path d="M2060 978 c0 -66 29 -127 82 -172 32 -28 98 -63 98 -53 0 1 4 17 9
35 8 27 7 34 -7 39 -61 22 -112 93 -112 157 0 35 -12 46 -51 46 -16 0 -19 -7
-19 -52z"/>
<path d="M3864 3325 c-15 -23 -15 -27 0 -51 24 -36 76 -31 90 8 20 57 -57 93
-90 43z"/>
</g>
</svg>
